<?xml version="1.0" encoding="iso-8859-1"?>
<!-- Uploaded to: SVG Repo, www.svgrepo.com, Generator: SVG Repo Mixer Tools -->
<svg height="800px" width="800px" version="1.1" id="Layer_1" xmlns="http://www.w3.org/2000/svg" xmlns:xlink="http://www.w3.org/1999/xlink" 
	 viewBox="0 0 392.59 392.59" xml:space="preserve">
<circle style="fill:#FFC10D;" cx="196.307" cy="196.295" r="156.251"/>
<path style="fill:#194F82;" d="M379.838,49.03l-36.267-36.267c-17.002-17.002-44.735-17.002-61.802,0l-88.242,88.242
	c-17.002,17.002-17.067,44.735,0,61.802l10.408,10.408l-30.707,30.707l-10.408-10.408c-17.002-17.002-44.735-17.067-61.802,0
	l-88.242,88.242c-17.002,17.002-17.067,44.735,0,61.802l36.267,36.267c17.002,17.002,44.735,17.002,61.802,0l88.242-88.242
	c17.002-17.002,17.002-44.735,0-61.802l-10.408-10.408l30.707-30.707l10.408,10.408c17.002,17.002,44.735,17.002,61.802,0
	l88.242-88.242C396.84,93.766,396.84,66.032,379.838,49.03z M183.636,276.133l-88.242,88.242c-8.469,8.469-22.432,8.469-30.966,0
	l-36.267-36.267c-8.469-8.469-8.469-22.432,0-30.966l88.242-88.242c8.469-8.469,22.432-8.469,30.966,0l10.408,10.408l-30.772,30.772
	c-4.267,4.267-4.267,11.119,0,15.451c4.267,4.267,11.119,4.267,15.45,0l30.772-30.772l10.408,10.408
	C192.105,253.701,192.105,267.6,183.636,276.133z M364.388,95.382l-88.242,88.242c-8.469,8.469-22.432,8.469-30.966,0
	l-10.408-10.408l30.772-30.772c4.267-4.267,4.267-11.119,0-15.451c-4.267-4.267-11.119-4.267-15.451,0l-30.772,30.772
	l-10.408-10.408c-8.469-8.469-8.469-22.432,0-30.966l39.046-39.046l11.636,11.636c4.267,4.267,11.119,4.267,15.451,0
	c4.267-4.267,4.267-11.119,0-15.451L263.41,61.895l15.451-15.451l24.76,24.76c4.267,4.267,11.119,4.267,15.451,0
	c4.267-4.267,4.267-11.119,0-15.45l-24.76-24.76l2.909-2.909c8.469-8.469,22.432-8.469,30.966,0l36.267,36.267
	C372.857,72.95,372.857,86.849,364.388,95.382z"/>
</svg>