<?xml version="1.0" encoding="utf-8"?>
<!-- Uploaded to: SVG Repo, www.svgrepo.com, Generator: SVG Repo Mixer Tools -->
<svg width="800px" height="800px" viewBox="0 0 1024 1024" class="icon"  version="1.1" xmlns="http://www.w3.org/2000/svg"><path d="M560.00384 699.526645c0-21.992033-17.828915-16.939159-39.819925-16.939159-21.988961 0-39.819924-5.052874-39.819924 16.939159v116.865247c0 21.995105 17.830963 39.817876 39.819924 39.817877 21.991009 0 39.819924-17.822772 39.819925-39.817877V699.526645z" fill="#FEDEBB" /><path d="M520.183915 864.188907c-26.35788 0-47.800086-21.441183-47.800086-47.797015V699.526645c0-8.400979 2.187019-14.588318 6.689043-18.916281 7.472315-7.185627 18.867135-6.741261 30.924408-6.265155 6.600989 0.260067 13.780473 0.260067 20.37327 0 12.057274-0.475083 23.453117-0.919449 30.924409 6.265155 4.502024 4.327963 6.689043 10.515302 6.689043 18.916281v116.865247c0 26.355832-21.44323 47.797015-47.800087 47.797015zM501.128386 690.071064c-5.045707 0-9.298927 0.412626-10.993457 2.041627-1.154943 1.111939-1.790775 3.743325-1.790776 7.413954v116.865247c0 17.555538 14.2832 31.837714 31.839762 31.837714 17.556562 0 31.839762-14.282176 31.839762-31.837714V699.526645c0-3.670629-0.636857-6.302014-1.790775-7.413954-2.573024-2.472683-11.041579-2.142992-19.236758-1.821492-6.902011 0.270306-14.718352 0.270306-21.623434 0-2.797255-0.108532-5.627274-0.220135-8.244324-0.220135z" fill="" /><path d="M550.508327 761.063177l-60.807525-0.031741v-59.307533l60.807525 0.265186z" fill="#FEAA58" /><path d="M740.35612 647.572656c0 69.516694-56.351577 66.080535-125.868271 66.080535H488.617531c-69.516694 0-125.867247 3.437183-125.867247-66.080535V354.926776c0-69.535124 58.871358-182.533156 181.59323-182.533156h4.062776c131.37575-2.883261 191.94983 112.998032 191.94983 182.533156v292.64588z" fill="#35A5FC" /><path d="M713.873326 647.572656c0 69.516694-52.39426 66.080535-117.042379 66.080535H479.793687c-64.643 0-117.042379 3.437183-117.042379-66.080535V354.929848c0-69.535124 54.741005-182.53418 168.858144-182.53418h3.781208c122.16283-2.882237 178.48369 113.00008 178.48369 182.53418v292.642808z" fill="#2377F7" /><path d="M663.525813 649.240565c0 67.762779-44.883037 64.412626-100.257827 64.412626h-100.258851c-55.369671 0-100.257827 3.351177-100.257827-64.412626V363.964612c0-67.779161 45.300782-186.980914 144.816292-176.94991l3.932744 0.194539c104.647224-2.810565 152.026493 108.975187 152.026493 176.754347v285.276977z" fill="#35A5FC" /><path d="M342.912506 306.399731a11.938503 11.938503 0 0 1-4.605436-0.924568c-6.100309-2.548451-8.981522-9.556946-6.436144-15.659302 3.777113-9.050122 6.83853-15.67978 12.18526-24.767786 3.350153-5.698946 10.685267-7.603372 16.38626-4.247077 5.697922 3.352201 7.599277 10.688339 4.247077 16.387285-4.676084 7.946374-7.279825 13.594125-10.726223 21.848689-1.916713 4.59315-6.366519 7.362759-11.050794 7.362759zM712.301662 545.548627c-6.611228 0-11.970243-5.359016-11.970243-11.970244v-40.027773c0-6.611228 5.359016-11.970243 11.970243-11.970243s11.970243 5.359016 11.970244 11.970243v40.027773c-0.001024 6.611228-5.36004 11.970243-11.970244 11.970244zM712.301662 459.09175c-6.611228 0-11.970243-5.359016-11.970243-11.970244v-84.799206c0-34.928824-17.430624-87.224791-56.370007-125.319468-33.503576-32.776617-77.278769-49.5325-126.717071-48.444111l-4.399636 0.003072c-62.301374 0-102.371126 30.517926-125.015374 56.119155-4.380181 4.956629-11.944646 5.416353-16.897179 1.035148-4.951509-4.380181-5.415329-11.944646-1.035148-16.89718 25.903275-29.286192 71.730334-64.19761 142.946678-64.19761h4.136496c55.732126-1.18054 105.506263 17.885229 143.720735 55.268306 46.919545 45.900779 63.56792 105.415138 63.567921 142.432688v84.799206c0.002048 6.611228-5.356968 11.970243-11.967172 11.970244z" fill="" /><path d="M401.141888 331.111204c-0.973715 0-1.964836-0.135153-2.94879-0.417746-5.645704-1.623882-8.907802-7.520438-7.282896-13.168189 4.971987-17.274993 13.098565-34.325756 23.50124-49.305198 3.352201-4.827619 9.981858-6.02147 14.809477-2.670293 4.826595 3.352201 6.02147 9.981858 2.670293 14.808454-9.094149 13.094469-16.192746 27.982786-20.529924 43.054378-1.34129 4.662774-5.596557 7.698594-10.2194 7.698594zM445.405475 259.522166a10.617691 10.617691 0 0 1-7.892108-3.498617c-3.94503-4.357656-3.609196-11.085606 0.746412-15.028588 2.902715-2.62729 5.938535-5.168573 9.021454-7.551155 4.647415-3.594861 11.331339-2.735822 14.925176 1.91057 3.593837 4.648439 2.738893 11.331339-1.91057 14.925177-2.649815 2.047771-5.258675 4.232742-7.753884 6.491433a10.602333 10.602333 0 0 1-7.13648 2.75118z" fill="#FFFFFF" /><path d="M569.12461 709.543315c0 27.224087-22.069848 20.976339-49.295983 20.976339s-49.298031 6.247748-49.29803-20.976339v-213.910122c0-27.229206 22.070872-49.295983 49.29803-49.295983 27.226135 0 49.295983 22.0678 49.295983 49.295983v213.910122z" fill="#2F92FB" /><path d="M602.992689 739.338378c-3.048107 0-6.127954-0.008191-9.23647-0.01331l-9.532372-0.015359-137.612236 0.015359c-46.938999 0.086006-87.478714 0.19761-111.308621-23.579056-12.923481-12.892764-19.206041-31.097445-19.206041-55.648167V362.323324c0-9.868207 1.060745-20.360984 3.156639-31.187547 1.256307-6.489385 7.535796-10.73339 14.025181-9.479131 6.490409 1.25426 10.735438 7.533748 9.47913 14.025182-1.804086 9.333739-2.719439 18.295807-2.719439 26.641496v297.775545c0 17.866799 3.98189 30.528165 12.17502 38.700817 16.797863 16.763051 52.723951 16.646328 94.343866 16.585919l9.586638-0.015358 137.667525 0.015358c41.615819 0.069624 77.544979 0.174061 94.343866-16.585919 8.19313-8.172653 12.17502-20.832995 12.17502-38.700817V578.406131c0-6.611228 5.359016-11.970243 11.970243-11.970244s11.970243 5.359016 11.970244 11.970244v81.691714c0 24.550722-6.28256 42.755403-19.206041 55.648167-22.251076 22.202953-59.074088 23.592366-102.072152 23.592366z" fill="" /><path d="M470.572576 555.606252c0 8.684595-7.042283 15.731998-15.731998 15.731998-8.690739 0-15.734046-7.047403-15.734046-15.731998 0-8.691763 7.043307-15.737117 15.734046-15.737117 8.689715 0.001024 15.731998 7.045355 15.731998 15.737117zM597.444254 558.74958c0 8.683571-7.042283 15.737117-15.733022 15.737117s-15.734046-7.052522-15.734045-15.737117c0-8.686643 7.043307-15.731998 15.734045-15.731998s15.733022 7.045355 15.733022 15.731998zM557.778937 590.925176c0.259043-2.327291-1.666885-4.231718-4.013631-4.231718h-67.881549c-2.341626 0-4.265506 1.904427-4.01363 4.231718 2.10818 19.100581 18.296831 33.952037 37.957476 33.952038 19.654503-0.001024 35.843154-14.851457 37.951334-33.952038z" fill="" /><path d="M534.597149 611.661926c0 4.130353-6.883581 7.483578-15.37159 7.483578-8.493129 0-15.383877-3.353224-15.383877-7.483578 0-4.138544 6.890748-7.483578 15.383877-7.483578 8.488009 0 15.37159 3.346057 15.37159 7.483578z" fill="#FD631F" /><path d="M814.17518 944.415441h63.327308" fill="#FEDEBB" /><path d="M877.502488 956.385685h-63.328332c-6.611228 0-11.970243-5.359016-11.970243-11.970244s5.359016-11.970243 11.970243-11.970243h63.328332c6.611228 0 11.970243 5.359016 11.970243 11.970243s-5.359016 11.970243-11.970243 11.970244z" fill="" /><path d="M755.174812 944.415441h18.093078" fill="#FEDEBB" /><path d="M773.26789 956.385685h-18.093078c-6.611228 0-11.970243-5.359016-11.970243-11.970244s5.359016-11.970243 11.970243-11.970243h18.093078c6.611228 0 11.970243 5.359016 11.970243 11.970243s-5.359016 11.970243-11.970243 11.970244z" fill="" /><path d="M219.445246 944.415441h494.821252" fill="#FEDEBB" /><path d="M714.266498 956.385685H219.445246c-6.611228 0-11.970243-5.359016-11.970243-11.970244s5.359016-11.970243 11.970243-11.970243h494.821252c6.611228 0 11.970243 5.359016 11.970243 11.970243s-5.359016 11.970243-11.970243 11.970244z" fill="" /><path d="M144.31766 944.415441h29.107012" fill="#FEDEBB" /><path d="M173.424672 956.385685h-29.107012c-6.611228 0-11.970243-5.359016-11.970243-11.970244s5.359016-11.970243 11.970243-11.970243h29.107012c6.611228 0 11.970243 5.359016 11.970244 11.970243s-5.359016 11.970243-11.970244 11.970244z" fill="" /><path d="M245.012687 329.992097a9.438175 9.438175 0 0 1-9.441247 9.440223 9.440223 9.440223 0 1 1 9.441247-9.440223zM842.692434 195.008175a9.440223 9.440223 0 0 1-9.440222 9.440223c-5.2126 0-9.441247-4.228646-9.441247-9.440223s4.22967-9.440223 9.441247-9.440223a9.440223 9.440223 0 0 1 9.440222 9.440223z" fill="#FD5C1E" /><path d="M353.052042 104.455757m-6.533412 0a6.533412 6.533412 0 1 0 13.066824 0 6.533412 6.533412 0 1 0-13.066824 0Z" fill="#FD5C1E" /><path d="M197.811573 294.603548m-6.293823 0a6.293823 6.293823 0 1 0 12.587646 0 6.293823 6.293823 0 1 0-12.587646 0Z" fill="#FED62C" /><path d="M795.546611 243.043755a6.294847 6.294847 0 0 1-6.292799 6.293823 6.292799 6.292799 0 0 1-6.293824-6.293823 6.294847 6.294847 0 0 1 12.586623 0z" fill="#FED62C" /><path d="M191.51775 212.816613c-8.986641 0-16.298207-7.311565-16.298207-16.296159s7.311565-16.296159 16.298207-16.296159c8.987665 0 16.29923 7.311565 16.29923 16.296159s-7.311565 16.296159-16.29923 16.296159z m0-27.273234c-6.052186 0-10.978098 4.923865-10.978098 10.976051s4.924888 10.976051 10.978098 10.976051c6.054234 0 10.979122-4.923865 10.979122-10.976051s-4.925912-10.976051-10.979122-10.976051z" fill="#FD5C1E" /><path d="M776.021118 181.543059c-10.277761 0-18.639832-8.362071-18.639833-18.640856s8.362071-18.640856 18.639833-18.640856c10.280833 0 18.644952 8.362071 18.644951 18.640856s-8.364119 18.640856-18.644951 18.640856z m0-31.961604c-7.345353 0-13.319724 5.976419-13.319725 13.320748 0 7.345353 5.974371 13.320748 13.319725 13.320748 7.347401 0 13.324844-5.976419 13.324843-13.320748 0-7.345353-5.977443-13.320748-13.324843-13.320748zM280.019326 245.81746a4.326939 4.326939 0 0 1-4.327963-4.326939v-4.326939a4.716016 4.716016 0 0 0-4.720112-4.720112 4.722159 4.722159 0 0 0-4.720111 4.720112v4.326939a4.325915 4.325915 0 0 1-4.32694 4.326939h-4.325915a4.720111 4.720111 0 0 0 0 9.440223h4.325915a4.325915 4.325915 0 0 1 4.32694 4.32694v4.327963a4.723183 4.723183 0 0 0 4.720111 4.721135 4.718064 4.718064 0 0 0 4.720112-4.721135v-4.327963a4.326939 4.326939 0 0 1 4.327963-4.32694h4.327963c2.60374 0 4.720111-2.113299 4.720111-4.720111s-2.115347-4.720111-4.720111-4.720112h-4.327963zM838.955253 289.704257a4.326939 4.326939 0 0 1-4.326939-4.327963v-4.331035a4.720111 4.720111 0 0 0-9.440223 0v4.331035a4.326939 4.326939 0 0 1-4.327963 4.327963h-4.32694c-2.605788 0-4.720111 2.112275-4.720111 4.722159s2.114323 4.722159 4.720111 4.722159h4.32694a4.330011 4.330011 0 0 1 4.327963 4.330011v4.327964a4.720111 4.720111 0 1 0 9.440223 0v-4.327964a4.327963 4.327963 0 0 1 4.326939-4.330011h4.326939c2.606812 0 4.720111-2.112275 4.720112-4.722159s-2.113299-4.722159-4.720112-4.722159h-4.326939z" fill="#2BA9FC" /><path d="M646.612251 80.853152a4.325915 4.325915 0 0 1-4.326939-4.326939v-4.326939a4.720111 4.720111 0 0 0-9.440223 0v4.326939a4.325915 4.325915 0 0 1-4.326939 4.326939h-4.325916a4.720111 4.720111 0 1 0 0 9.440223h4.325916a4.328987 4.328987 0 0 1 4.326939 4.328987v4.32694a4.722159 4.722159 0 0 0 4.720112 4.720111 4.718064 4.718064 0 0 0 4.720111-4.720111v-4.32694a4.326939 4.326939 0 0 1 4.326939-4.328987h4.32694a4.720111 4.720111 0 1 0 0-9.440223h-4.32694z" fill="#FD5C1E" /><path d="M747.368711 81.190011a5.296559 5.296559 0 0 1-5.297583-5.293487v-5.297583a5.777785 5.777785 0 0 0-11.554546 0v5.297583a5.291439 5.291439 0 0 1-5.291439 5.293487H719.92756a5.777785 5.777785 0 1 0 0 11.555569h5.297583a5.292463 5.292463 0 0 1 5.291439 5.293488v5.296558a5.777785 5.777785 0 0 0 11.554546 0v-5.296558a5.297583 5.297583 0 0 1 5.297583-5.293488h5.291439c3.19657 0 5.777785-2.586334 5.777785-5.777784s-2.581215-5.777785-5.777785-5.777785h-5.291439z" fill="#FED62C" /><path d="M270.185931 88.482122a3.198618 3.198618 0 0 0-3.201689 3.205785l-0.007167 14.101973a3.211928 3.211928 0 0 0 3.214999 3.205784 3.210904 3.210904 0 0 0 3.20169-3.206808V91.687907a3.207833 3.207833 0 0 0-3.207833-3.205785zM270.185931 137.197562a3.20988 3.20988 0 0 0-3.207833 3.205785l0.007168 14.100949a3.202713 3.202713 0 0 0 3.201689 3.205784 3.207833 3.207833 0 0 0 3.207833-3.205784v-14.102997a3.207833 3.207833 0 0 0-3.208857-3.203737zM255.681572 113.126018a3.207833 3.207833 0 0 0 4.535812-4.534788l-9.974691-9.972643a3.204761 3.204761 0 1 0-4.530693 4.53274l9.969572 9.974691zM284.690291 133.066185a3.199642 3.199642 0 0 0-4.528645 0.004095 3.199642 3.199642 0 0 0 0 4.531717l9.967524 9.971619a3.210904 3.210904 0 0 0 4.536835 0 3.207833 3.207833 0 0 0 0-4.532741l-9.975714-9.97469zM256.08703 123.094565a3.20988 3.20988 0 0 0-3.207832-3.202713h-14.097878a3.206809 3.206809 0 0 0-3.208856 3.204761 3.207833 3.207833 0 0 0 3.208856 3.205785l14.097878 0.003072a3.217048 3.217048 0 0 0 3.207832-3.210905zM301.598733 119.891852h-14.106068a3.203737 3.203737 0 0 0-3.202713 3.205785 3.204761 3.204761 0 0 0 3.202713 3.206809l14.106068-0.003072a3.202713 3.202713 0 0 0 3.200665-3.205785 3.199642 3.199642 0 0 0-3.200665-3.203737zM255.681572 133.07028l-9.970596 9.969572a3.204761 3.204761 0 0 0 0 4.53274 3.201689 3.201689 0 0 0 4.530693 0l9.974691-9.971619a3.210904 3.210904 0 0 0 0-4.535812 3.210904 3.210904 0 0 0-4.534788 0.005119zM284.690291 113.126018l9.974691-9.973667a3.213976 3.213976 0 0 0 0-4.53274 3.20988 3.20988 0 0 0-4.536836 0l-9.967524 9.973667a3.200666 3.200666 0 0 0 0 4.53274 3.200666 3.200666 0 0 0 4.529669 0z" fill="#FED62C" /></svg>