<!DOCTYPE svg PUBLIC "-//W3C//DTD SVG 1.1//EN" "http://www.w3.org/Graphics/SVG/1.1/DTD/svg11.dtd">
<!-- Uploaded to: SVG Repo, www.svgrepo.com, Transformed by: SVG Repo Mixer Tools -->
<svg xmlns="http://www.w3.org/2000/svg" xmlns:xlink="http://www.w3.org/1999/xlink" version="1.1" id="wirelesskeyboard" viewBox="0 0 232 184.1775" enable-background="new 0 0 232 184.1775" xml:space="preserve" width="800px" height="800px" fill="#000000">
<g id="SVGRepo_bgCarrier" stroke-width="0"/>
<g id="SVGRepo_tracerCarrier" stroke-linecap="round" stroke-linejoin="round"/>
<g id="SVGRepo_iconCarrier"> <g> <rect x="24" y="96.1775" fill="#D0E8FF" width="8" height="8"/> <rect x="24" y="152.1775" fill="#D0E8FF" width="8" height="8"/> <rect x="160" y="152.1775" fill="#D0E8FF" width="8" height="8"/> <rect x="56" y="152.1775" fill="#D0E8FF" width="72" height="8"/> <rect x="160" y="124.1775" fill="#D0E8FF" width="8" height="8"/> <rect x="100" y="124.1775" fill="#D0E8FF" width="8" height="8"/> <rect x="88" y="96.1775" fill="#D0E8FF" width="8" height="8"/> <rect x="56" y="96.1775" fill="#D0E8FF" width="8" height="8"/> <rect x="36" y="124.1775" fill="#D0E8FF" width="8" height="8"/> <rect x="68" y="124.1775" fill="#D0E8FF" width="8" height="8"/> <rect x="192" y="124.1775" fill="#D0E8FF" width="8" height="8"/> <path fill="#5CB0FF" d="M220.0273,80.1775H11.9727C9.7812,80.1775,8,81.9666,8,84.1658v88.0234 c0,2.1992,1.7812,3.9883,3.9727,3.9883h208.0547c2.1914,0,3.9727-1.7891,3.9727-3.9883V84.1658 C224,81.9666,222.2188,80.1775,220.0273,80.1775z M116,120.1775v16c0,2.209-1.7891,4-4,4H96c-2.2109,0-4-1.791-4-4v-16 c0-2.209,1.7891-4,4-4h16C114.2109,116.1775,116,117.9685,116,120.1775z M80,92.1775c0-2.209,1.7891-4,4-4h16c2.2109,0,4,1.791,4,4 v16c0,2.209-1.7891,4-4,4H84c-2.2109,0-4-1.791-4-4V92.1775z M84,120.1775v16c0,2.209-1.7891,4-4,4H64c-2.2109,0-4-1.791-4-4v-16 c0-2.209,1.7891-4,4-4h16C82.2109,116.1775,84,117.9685,84,120.1775z M48,92.1775c0-2.209,1.7891-4,4-4h16c2.2109,0,4,1.791,4,4v16 c0,2.209-1.7891,4-4,4H52c-2.2109,0-4-1.791-4-4V92.1775z M52,120.1775v16c0,2.209-1.7891,4-4,4H32c-2.2109,0-4-1.791-4-4v-16 c0-2.209,1.7891-4,4-4h16C50.2109,116.1775,52,117.9685,52,120.1775z M16,92.1775c0-2.209,1.7891-4,4-4h16c2.2109,0,4,1.791,4,4v16 c0,2.209-1.7891,4-4,4H20c-2.2109,0-4-1.791-4-4V92.1775z M40,164.1775c0,2.209-1.7891,4-4,4H20c-2.2109,0-4-1.791-4-4v-16 c0-2.209,1.7891-4,4-4h16c2.2109,0,4,1.791,4,4V164.1775z M136,164.1775c0,2.209-1.7891,4-4,4H52c-2.2109,0-4-1.791-4-4v-16 c0-2.209,1.7891-4,4-4h80c2.2109,0,4,1.791,4,4V164.1775z M176,164.1775c0,2.209-1.7891,4-4,4h-16c-2.2109,0-4-1.791-4-4v-16 c0-2.209,1.7891-4,4-4h16c2.2109,0,4,1.791,4,4V164.1775z M176,136.1775c0,2.209-1.7891,4-4,4h-16c-2.2109,0-4-1.791-4-4v-16 c0-2.209,1.7891-4,4-4h16c2.2109,0,4,1.791,4,4V136.1775z M176,108.1775c0,2.209-1.7891,4-4,4h-16c-2.2109,0-4-1.791-4-4v-16 c0-2.209,1.7891-4,4-4h16c2.2109,0,4,1.791,4,4V108.1775z M208,164.1775c0,2.209-1.7891,4-4,4h-16c-2.2109,0-4-1.791-4-4v-16 c0-2.209,1.7891-4,4-4h16c2.2109,0,4,1.791,4,4V164.1775z M208,136.1775c0,2.209-1.7891,4-4,4h-16c-2.2109,0-4-1.791-4-4v-16 c0-2.209,1.7891-4,4-4h16c2.2109,0,4,1.791,4,4V136.1775z M208,108.1775c0,2.209-1.7891,4-4,4h-16c-2.2109,0-4-1.791-4-4v-16 c0-2.209,1.7891-4,4-4h16c2.2109,0,4,1.791,4,4V108.1775z"/> <rect x="192" y="96.1775" fill="#D0E8FF" width="8" height="8"/> <rect x="192" y="152.1775" fill="#D0E8FF" width="8" height="8"/> <rect x="160" y="96.1775" fill="#D0E8FF" width="8" height="8"/> <path fill="#1C71DA" d="M220.0273,72.1775H11.9727C5.3711,72.1775,0,77.5544,0,84.1658v88.0234 c0,6.6113,5.3711,11.9883,11.9727,11.9883h208.0547c6.6016,0,11.9727-5.377,11.9727-11.9883V84.1658 C232,77.5544,226.6289,72.1775,220.0273,72.1775z M224,172.1892c0,2.1992-1.7812,3.9883-3.9727,3.9883H11.9727 c-2.1914,0-3.9727-1.7891-3.9727-3.9883V84.1658c0-2.1992,1.7812-3.9883,3.9727-3.9883h208.0547 c2.1914,0,3.9727,1.7891,3.9727,3.9883V172.1892z"/> <path fill="#1C71DA" d="M20,112.1775h16c2.2109,0,4-1.791,4-4v-16c0-2.209-1.7891-4-4-4H20c-2.2109,0-4,1.791-4,4v16 C16,110.3865,17.7891,112.1775,20,112.1775z M24,96.1775h8v8h-8V96.1775z"/> <path fill="#1C71DA" d="M52,112.1775h16c2.2109,0,4-1.791,4-4v-16c0-2.209-1.7891-4-4-4H52c-2.2109,0-4,1.791-4,4v16 C48,110.3865,49.7891,112.1775,52,112.1775z M56,96.1775h8v8h-8V96.1775z"/> <path fill="#1C71DA" d="M60,120.1775v16c0,2.209,1.7891,4,4,4h16c2.2109,0,4-1.791,4-4v-16c0-2.209-1.7891-4-4-4H64 C61.7891,116.1775,60,117.9685,60,120.1775z M68,124.1775h8v8h-8V124.1775z"/> <path fill="#1C71DA" d="M28,120.1775v16c0,2.209,1.7891,4,4,4h16c2.2109,0,4-1.791,4-4v-16c0-2.209-1.7891-4-4-4H32 C29.7891,116.1775,28,117.9685,28,120.1775z M36,124.1775h8v8h-8V124.1775z"/> <path fill="#1C71DA" d="M92,120.1775v16c0,2.209,1.7891,4,4,4h16c2.2109,0,4-1.791,4-4v-16c0-2.209-1.7891-4-4-4H96 C93.7891,116.1775,92,117.9685,92,120.1775z M100,124.1775h8v8h-8V124.1775z"/> <path fill="#1C71DA" d="M36,144.1775H20c-2.2109,0-4,1.791-4,4v16c0,2.209,1.7891,4,4,4h16c2.2109,0,4-1.791,4-4v-16 C40,145.9685,38.2109,144.1775,36,144.1775z M32,160.1775h-8v-8h8V160.1775z"/> <path fill="#1C71DA" d="M84,112.1775h16c2.2109,0,4-1.791,4-4v-16c0-2.209-1.7891-4-4-4H84c-2.2109,0-4,1.791-4,4v16 C80,110.3865,81.7891,112.1775,84,112.1775z M88,96.1775h8v8h-8V96.1775z"/> <path fill="#1C71DA" d="M172,88.1775h-16c-2.2109,0-4,1.791-4,4v16c0,2.209,1.7891,4,4,4h16c2.2109,0,4-1.791,4-4v-16 C176,89.9685,174.2109,88.1775,172,88.1775z M168,104.1775h-8v-8h8V104.1775z"/> <path fill="#1C71DA" d="M172,116.1775h-16c-2.2109,0-4,1.791-4,4v16c0,2.209,1.7891,4,4,4h16c2.2109,0,4-1.791,4-4v-16 C176,117.9685,174.2109,116.1775,172,116.1775z M168,132.1775h-8v-8h8V132.1775z"/> <path fill="#1C71DA" d="M204,116.1775h-16c-2.2109,0-4,1.791-4,4v16c0,2.209,1.7891,4,4,4h16c2.2109,0,4-1.791,4-4v-16 C208,117.9685,206.2109,116.1775,204,116.1775z M200,132.1775h-8v-8h8V132.1775z"/> <path fill="#1C71DA" d="M172,144.1775h-16c-2.2109,0-4,1.791-4,4v16c0,2.209,1.7891,4,4,4h16c2.2109,0,4-1.791,4-4v-16 C176,145.9685,174.2109,144.1775,172,144.1775z M168,160.1775h-8v-8h8V160.1775z"/> <path fill="#1C71DA" d="M204,144.1775h-16c-2.2109,0-4,1.791-4,4v16c0,2.209,1.7891,4,4,4h16c2.2109,0,4-1.791,4-4v-16 C208,145.9685,206.2109,144.1775,204,144.1775z M200,160.1775h-8v-8h8V160.1775z"/> <path fill="#1C71DA" d="M204,88.1775h-16c-2.2109,0-4,1.791-4,4v16c0,2.209,1.7891,4,4,4h16c2.2109,0,4-1.791,4-4v-16 C208,89.9685,206.2109,88.1775,204,88.1775z M200,104.1775h-8v-8h8V104.1775z"/> <path fill="#1C71DA" d="M132,144.1775H52c-2.2109,0-4,1.791-4,4v16c0,2.209,1.7891,4,4,4h80c2.2109,0,4-1.791,4-4v-16 C136,145.9685,134.2109,144.1775,132,144.1775z M128,160.1775H56v-8h72V160.1775z"/> <path fill="#1C71DA" d="M84.8867,45.3494c-1.5625,1.5625-1.5625,4.0938,0,5.6562s4.0938,1.5625,5.6562,0 c14.0391-14.0352,36.875-14.0352,50.9141,0c0.7812,0.7812,1.8047,1.1719,2.8281,1.1719s2.0469-0.3906,2.8281-1.1719 c1.5625-1.5625,1.5625-4.0938,0-5.6562C129.957,28.1931,102.043,28.1931,84.8867,45.3494z"/> <path fill="#1C71DA" d="M73.5742,39.0056C84.9062,27.6736,99.9727,21.4314,116,21.4314s31.0938,6.2422,42.4258,17.5742 c0.7812,0.7812,1.8047,1.1719,2.8281,1.1719s2.0469-0.3906,2.8281-1.1719c1.5625-1.5625,1.5625-4.0938,0-5.6562 c-12.8438-12.8438-29.918-19.918-48.082-19.918s-35.2383,7.0742-48.082,19.918c-1.5625,1.5625-1.5625,4.0938,0,5.6562 S72.0117,40.5681,73.5742,39.0056z"/> </g> <path fill="#FF5D5D" d="M20.252,32.0012c-1.0234,0-2.0469-0.3906-2.8281-1.1714c-1.5625-1.5625-1.5625-4.0952,0-5.6572 l14.1426-14.1421c1.5605-1.5615,4.0938-1.5615,5.6562,0c1.5625,1.5625,1.5625,4.0952,0,5.6572L23.0801,30.8298 C22.2998,31.6106,21.2754,32.0012,20.252,32.0012z"/> <path fill="#FF5D5D" d="M34.3945,31.9998c-1.0234,0-2.0479-0.3906-2.8281-1.1714L17.4238,16.6858 c-1.5625-1.5625-1.5625-4.0947,0-5.6572c1.5605-1.5615,4.0957-1.5615,5.6562,0l14.1426,14.1426 c1.5625,1.5625,1.5625,4.0947,0,5.6572C36.4424,31.6091,35.418,31.9998,34.3945,31.9998z"/> <path fill="#00D40B" d="M194.252,72.0012c-7.7197,0-14-6.2803-14-14s6.2803-14,14-14s14,6.2803,14,14 S201.9717,72.0012,194.252,72.0012z M194.252,52.0012c-3.3086,0-6,2.6914-6,6s2.6914,6,6,6s6-2.6914,6-6 S197.5605,52.0012,194.252,52.0012z"/> <path fill="#FFC504" d="M191.5664,30.6267c-1.0234,0-2.0469-0.3906-2.8281-1.1714l-11.3145-11.3135 c-0.75-0.75-1.1719-1.7676-1.1719-2.8286s0.4219-2.0786,1.1719-2.8286l11.3145-11.3135c1.5625-1.5615,4.0938-1.5615,5.6562,0 l11.3135,11.3135c1.5625,1.5625,1.5625,4.0947,0,5.6572l-11.3135,11.3135C193.6143,30.2361,192.5898,30.6267,191.5664,30.6267z M185.9092,15.3132l5.6572,5.6567l5.6562-5.6567l-5.6562-5.6567L185.9092,15.3132z"/> </g>
</svg>